<svg id="Layer_1" data-name="Layer 1" xmlns="http://www.w3.org/2000/svg" viewBox="0 0 60 60"><defs><style>.cls-1{fill:#fff;}</style></defs><title>conmuter</title><path class="cls-1" d="M35.27,38.54c1-1,2-2,3-3a4.53,4.53,0,0,1,6.63-.06c1.74,1.73,3.49,3.46,5.21,5.22a4.52,4.52,0,0,1,0,6.43C47,50.65,43,51.85,38.32,51.42a28.65,28.65,0,0,1-13.59-5.28A40.67,40.67,0,0,1,12.19,32.56,27.17,27.17,0,0,1,8.63,22.12a13.68,13.68,0,0,1,2.15-9.84,15.68,15.68,0,0,1,2.57-2.77,4.33,4.33,0,0,1,5.77.18c1.94,1.86,3.85,3.76,5.7,5.71a4.44,4.44,0,0,1-.13,6.15c-.92.95-1.86,1.87-2.8,2.8l-.4.42A39.84,39.84,0,0,0,35.27,38.54ZM40,48.3A9.75,9.75,0,0,0,47.76,45a1.36,1.36,0,0,0,0-2.18l-5-5a1.34,1.34,0,0,0-2.21,0c-1.22,1.2-2.42,2.42-3.64,3.62a1.69,1.69,0,0,1-2.35.34A41.41,41.41,0,0,1,18.28,25.53a1.69,1.69,0,0,1,.36-2.47c1.21-1.22,2.43-2.42,3.63-3.64a1.31,1.31,0,0,0,0-2.06c-.53-.56-1.08-1.09-1.62-1.63-1.17-1.17-2.34-2.35-3.52-3.51a1.26,1.26,0,0,0-1.9-.13,15,15,0,0,0-1.92,2.14A10.94,10.94,0,0,0,11.85,22,24.63,24.63,0,0,0,15.55,32,37.11,37.11,0,0,0,30,45.54,22,22,0,0,0,40,48.3Z"/><path class="cls-1" d="M30.59,10a20.42,20.42,0,0,1,15.33,8.18,20,20,0,0,1,4.19,12.26,1.58,1.58,0,0,1-1.24,1.7,1.55,1.55,0,0,1-1.78-.85,2.38,2.38,0,0,1-.18-.88,16.91,16.91,0,0,0-3.79-10.61A17,17,0,0,0,32,13.43c-.8-.12-1.63-.15-2.44-.2a1.59,1.59,0,0,1-1.59-1.49,1.55,1.55,0,0,1,1.43-1.69A10,10,0,0,1,30.59,10Z"/><path class="cls-1" d="M43.33,29.91c0,.27,0,.54,0,.8a1.61,1.61,0,0,1-1.63,1.52,1.56,1.56,0,0,1-1.55-1.53,11.61,11.61,0,0,0-.77-4,10.45,10.45,0,0,0-8.15-6.56c-.64-.12-1.31-.11-2-.2a1.53,1.53,0,0,1-1.34-1.45,1.55,1.55,0,0,1,1.57-1.7,13.27,13.27,0,0,1,7.75,2.36,13.68,13.68,0,0,1,5.83,8.87,7.52,7.52,0,0,1,.15,1c0,.3,0,.6.06.9Z"/></svg>