<svg xmlns="http://www.w3.org/2000/svg" viewBox="0 0 93.75 93.75"><defs><style>.cls-1{fill:#2a2625;}</style></defs><title>FB</title><g id="Layer_1" data-name="Layer 1"><path class="cls-1" d="M60,50.43l.46-4.56H54.82a1,1,0,0,1-1.19-1.2c0-1.45,0-2.91,0-4.36a2.52,2.52,0,0,1,2-2.63,3.68,3.68,0,0,1,.82-.07h4.06V33.23l-.37,0c-1.84,0-3.68,0-5.52,0a10.16,10.16,0,0,0-2.28.28,5.61,5.61,0,0,0-4.3,4.85,9.69,9.69,0,0,0-.15,1.79c0,1.53,0,3.06,0,4.58a1.06,1.06,0,0,1-1.21,1.2H42.46v4.49l.38,0H46.7a1.07,1.07,0,0,1,1.21,1.22V69.52a1.07,1.07,0,0,1-1.22,1.22H32.29a9.17,9.17,0,0,1-9.18-8A8.47,8.47,0,0,1,23,61.5q0-14.61,0-29.24a9.19,9.19,0,0,1,8.12-9.18,9.44,9.44,0,0,1,1.3-.07H61.33a9.19,9.19,0,0,1,9.22,7.49,10.2,10.2,0,0,1,.16,1.83q0,14.55,0,29.1a9.17,9.17,0,0,1-9.22,9.3c-2.21,0-4.43,0-6.64,0-.85,0-1.23-.39-1.23-1.24V51.7c0-.9.37-1.27,1.27-1.27H60ZM45.81,68.67V52.5H41.53a1,1,0,0,1-1.16-1.16c0-2.11,0-4.21,0-6.32a1,1,0,0,1,1.18-1.17h4.29c0-1.23,0-2.42,0-3.61a13.92,13.92,0,0,1,.21-2.33,7.78,7.78,0,0,1,3.85-5.65,9.22,9.22,0,0,1,4.51-1.12c2.33,0,4.66,0,7,0a1.07,1.07,0,0,1,1.21,1.22v6.07c0,.86-.38,1.23-1.23,1.24-1.66,0-3.32,0-5,0-.56,0-.71.15-.72.71v3.14c0,.08,0,.16,0,.28h5.72c.88,0,1.27.43,1.2,1.31,0,.06,0,.12,0,.18-.21,2-.42,4.07-.62,6.11a1.06,1.06,0,0,1-1.23,1.1H55.73V68.67h5.66a7.14,7.14,0,0,0,7.26-7.24V32.29a7.13,7.13,0,0,0-7.22-7.21H32.34a7.13,7.13,0,0,0-7.24,7.19q0,14.61,0,29.21a7.12,7.12,0,0,0,7.24,7.19H45.81Z"/></g></svg>