<svg xmlns="http://www.w3.org/2000/svg" viewBox="0 0 47.7 47.73"><defs><style>.cls-1{fill:#fff;}</style></defs><g id="Layer_1" data-name="Layer 1"><path class="cls-1" d="M37,27.42l.46-4.56H31.8a1.05,1.05,0,0,1-1.2-1.2c0-1.45,0-2.91,0-4.36a2.51,2.51,0,0,1,2-2.63,3.79,3.79,0,0,1,.82-.07h4.06V10.22l-.37,0c-1.84,0-3.68,0-5.52,0a10.31,10.31,0,0,0-2.28.28A5.61,5.61,0,0,0,25,15.34a10.63,10.63,0,0,0-.15,1.79c0,1.53,0,3.06,0,4.58a1.06,1.06,0,0,1-1.2,1.2H19.43V27.4l.38,0h3.86a1.07,1.07,0,0,1,1.21,1.22V46.51a1.07,1.07,0,0,1-1.22,1.22H9.26a9.18,9.18,0,0,1-9.18-8A10.16,10.16,0,0,1,0,38.49V9.25A9.2,9.2,0,0,1,8.13.07,9.3,9.3,0,0,1,9.42,0H38.3a9.18,9.18,0,0,1,9.22,7.49,9.37,9.37,0,0,1,.17,1.83q0,14.55,0,29.1a9.17,9.17,0,0,1-9.22,9.3c-2.21,0-4.43,0-6.64,0-.85,0-1.23-.39-1.23-1.24V28.69c0-.9.38-1.27,1.27-1.27H37ZM22.78,45.66V29.49H18.5a1,1,0,0,1-1.16-1.16V22a1,1,0,0,1,1.19-1.17c1.28,0,2.57,0,3.86,0h.42c0-1.23,0-2.42,0-3.61A15.06,15.06,0,0,1,23,14.9a7.83,7.83,0,0,1,3.85-5.65,9.22,9.22,0,0,1,4.51-1.12c2.33,0,4.67,0,7,0A1.07,1.07,0,0,1,39.6,9.35v6.07c0,.86-.38,1.23-1.23,1.24-1.66,0-3.32,0-5,0-.55,0-.71.15-.71.71,0,1,0,2.09,0,3.14,0,.08,0,.16,0,.28h5.71c.88,0,1.27.43,1.21,1.31,0,.06,0,.12,0,.18-.21,2-.41,4.07-.62,6.11a1.06,1.06,0,0,1-1.22,1.1H32.7V45.66h5.66a7.12,7.12,0,0,0,7.26-7.24V9.28a7.12,7.12,0,0,0-7.21-7.21H9.31A7.11,7.11,0,0,0,2.08,9.26q0,14.61,0,29.21a7.11,7.11,0,0,0,7.23,7.19H22.78Z"/></g></svg>