<svg xmlns="http://www.w3.org/2000/svg" viewBox="0 0 47.7 47.73"><defs><style>.cls-1{fill:none;stroke:#fff;stroke-miterlimit:10;stroke-width:2px;}.cls-2{font-size:14.76px;font-family:Montserrat-Bold, Montserrat;font-weight:700;}.cls-2,.cls-6{fill:#fff;}.cls-3{letter-spacing:-0.01em;}.cls-4{letter-spacing:0em;}.cls-5{font-size:6.02px;}</style></defs><g id="Layer_1" data-name="Layer 1"><rect class="cls-1" x="2.81" y="2.83" width="42.07" height="42.07" rx="9.55"/><text class="cls-2" transform="translate(11.35 27.28)">I<tspan class="cls-3" x="4.84" y="0">F</tspan><tspan class="cls-4" x="14.17" y="0">C</tspan><tspan class="cls-5"><tspan x="0.26" y="5.52">ONLINE</tspan></tspan></text><path class="cls-6" d="M20.7,14.7c0,.17,0,.38-.11.5a.6.6,0,0,1-.49.2.58.58,0,0,1-.37-.36c-.16-.58-.24-1.19-.4-1.78a6,6,0,0,0-1.9-2.95,6.47,6.47,0,0,0-4.37-1.72c-.32,0-.65,0-.72-.43s.09-.57.47-.59A7.34,7.34,0,0,1,17.49,9a7.66,7.66,0,0,1,3,4.39C20.59,13.83,20.63,14.26,20.7,14.7Z"/><path class="cls-6" d="M13.3,9.38a5.85,5.85,0,0,1,4.21,2.09,6,6,0,0,1,1.29,2.76,5.05,5.05,0,0,1,.08.68.46.46,0,0,1-.44.51.48.48,0,0,1-.56-.39c-.08-.34-.12-.69-.21-1a4.68,4.68,0,0,0-3.26-3.38A9.85,9.85,0,0,0,13,10.38c-.34-.05-.53-.25-.52-.54s.2-.46.56-.46Z"/><path class="cls-6" d="M13.29,11.17a4.09,4.09,0,0,1,3.47,2.51,7,7,0,0,1,.29,1.11.46.46,0,0,1-.4.61c-.29.07-.49-.11-.58-.4,0-.1-.06-.21-.08-.31a3.07,3.07,0,0,0-2.58-2.45l-.22,0c-.44-.07-.62-.26-.58-.61S12.86,11.16,13.29,11.17Z"/><path class="cls-6" d="M13.84,15.79a1.13,1.13,0,0,1-1.2-1.25,1.15,1.15,0,0,1,1.16-1.12,1.19,1.19,0,1,1,0,2.37Z"/></g></svg>