<svg xmlns="http://www.w3.org/2000/svg" viewBox="0 0 93.75 93.75"><defs><style>.cls-1{fill:#e5534e;}.cls-2{font-size:17px;font-family:Montserrat-Bold, Montserrat;font-weight:700;}.cls-2,.cls-5{fill:#fff;}.cls-3{letter-spacing:-0.01em;}.cls-4{font-size:6.94px;}</style></defs><title>IFConline</title><g id="Layer_1" data-name="Layer 1"><rect class="cls-1" x="22.65" y="22.65" width="48.45" height="48.45" rx="9.55"/><text class="cls-2" transform="translate(32.48 50.8)">I<tspan class="cls-3" x="5.58" y="0">F</tspan><tspan x="16.32" y="0">C</tspan><tspan class="cls-4"><tspan x="0.3" y="6.36">ONLINE</tspan></tspan></text><path class="cls-5" d="M43.25,36.32c0,.19,0,.44-.13.58a.73.73,0,0,1-.56.23.67.67,0,0,1-.43-.42c-.18-.67-.28-1.37-.46-2.05a7,7,0,0,0-2.18-3.4,7.59,7.59,0,0,0-5.05-2c-.36,0-.74,0-.82-.49s.11-.66.54-.68a8.39,8.39,0,0,1,5.39,1.67,8.85,8.85,0,0,1,3.45,5C43.12,35.31,43.17,35.81,43.25,36.32Z"/><path class="cls-5" d="M34.72,30.19a6.79,6.79,0,0,1,6.34,5.59,5,5,0,0,1,.09.78.53.53,0,0,1-.51.59.55.55,0,0,1-.64-.46c-.09-.38-.13-.78-.24-1.17A5.42,5.42,0,0,0,36,31.63a11.29,11.29,0,0,0-1.66-.29c-.39-.06-.61-.28-.59-.62s.22-.53.64-.53Z"/><path class="cls-5" d="M34.71,32.25a4.7,4.7,0,0,1,4,2.9,7.66,7.66,0,0,1,.34,1.27.54.54,0,0,1-.46.71.57.57,0,0,1-.68-.46l-.09-.36a3.54,3.54,0,0,0-3-2.83l-.25,0c-.5-.08-.71-.3-.67-.71S34.22,32.24,34.71,32.25Z"/><path class="cls-5" d="M35.35,37.57A1.3,1.3,0,0,1,34,36.13a1.33,1.33,0,0,1,1.34-1.28,1.39,1.39,0,0,1,1.39,1.47A1.37,1.37,0,0,1,35.35,37.57Z"/></g></svg>