<svg xmlns="http://www.w3.org/2000/svg" viewBox="0 0 93.75 93.75"><defs><style>.cls-1{fill:#2a2625;}</style></defs><title>IG</title><g id="Layer_1" data-name="Layer 1"><path class="cls-1" d="M71.19,46.87c0,3.88,0,7.76,0,11.64A12.5,12.5,0,0,1,58.59,71.17q-11.64.09-23.29,0A12.52,12.52,0,0,1,22.58,58.41q-.06-11.55,0-23.08A12.51,12.51,0,0,1,35.3,22.57q11.64-.08,23.29,0A12.51,12.51,0,0,1,71.18,35.22c0,3.88,0,7.77,0,11.65Zm-2.64-.21h0V36.5c0-7.17-4.07-11.28-11.23-11.3-6.91,0-13.82,0-20.73,0-7.19,0-11.32,4.05-11.34,11.2,0,7,0,14,0,20.94s4.08,11.15,11.14,11.18,14.25,0,21.37,0c6.61,0,10.81-4.29,10.81-10.87Z"/><path class="cls-1" d="M34.09,46.79A12.81,12.81,0,1,1,46.7,59.68,12.61,12.61,0,0,1,34.09,46.79ZM47,36.75A10.13,10.13,0,1,0,57,46.88,10.09,10.09,0,0,0,47,36.75Z"/><path class="cls-1" d="M63.72,33.05a2.83,2.83,0,0,1-2.85,2.77,2.66,2.66,0,0,1-2.66-2.89A2.54,2.54,0,0,1,60.9,30.3,2.72,2.72,0,0,1,63.72,33.05Z"/></g></svg>