<svg xmlns="http://www.w3.org/2000/svg" viewBox="0 0 47.7 47.73"><defs><style>.cls-1{fill:#fff;}</style></defs><g id="Layer_1" data-name="Layer 1"><path class="cls-1" d="M47.4,23.86c0,3.76,0,7.52,0,11.28A12.13,12.13,0,0,1,35.2,47.4q-11.28.09-22.56,0A12.11,12.11,0,0,1,.32,35Q.25,23.85.32,12.68A12.09,12.09,0,0,1,12.63.33c7.52-.06,15,0,22.57,0A12.1,12.1,0,0,1,47.39,12.58c0,3.76,0,7.52,0,11.28Zm-2.55-.21h0q0-4.92,0-9.84C44.85,6.87,40.9,2.89,34,2.87q-10,0-20.09,0c-7,0-11,3.92-11,10.85,0,6.76,0,13.52,0,20.29s4,10.8,10.79,10.83,13.8,0,20.7,0c6.4,0,10.48-4.15,10.48-10.53Z"/><path class="cls-1" d="M11.47,23.78A12.21,12.21,0,0,1,23.84,11.45,12.26,12.26,0,0,1,36.28,23.94a12.28,12.28,0,0,1-12.6,12.33A12.23,12.23,0,0,1,11.47,23.78ZM24,14.06a9.81,9.81,0,1,0,9.69,9.81A9.78,9.78,0,0,0,24,14.06Z"/><path class="cls-1" d="M40.17,10.48a2.75,2.75,0,0,1-2.77,2.68,2.6,2.6,0,0,1-2.58-2.81,2.47,2.47,0,0,1,2.61-2.54A2.63,2.63,0,0,1,40.17,10.48Z"/></g></svg>