<svg id="Logo" xmlns="http://www.w3.org/2000/svg" viewBox="0 0 328.31 94.1"><defs><style>.cls-1{fill:#2a2625;}.cls-2{fill:#016eae;}</style></defs><title>LOGO</title><path class="cls-1" d="M228.23,11.59v41a6.52,6.52,0,0,1-.69,3.38,2.66,2.66,0,0,1-2.65,1.14,8.66,8.66,0,0,1-4.27-2.53c-3.33-3.34-6.65-6.7-10-10-2.45-2.46-4.92-4.89-7.36-7.35s-4.72-4.76-7.08-7.14l-4.12-4.17c-.19-.19-.4-.35-.72-.63a4.91,4.91,0,0,0-.09.68q0,15.14,0,30.28c0,.3,0,.51-.38.51h-7.25c0-.21,0-.34,0-.47q0-20.14,0-40.3a6.55,6.55,0,0,1,.35-2.38c.74-1.86,2.59-2.47,4.59-1.69a9.8,9.8,0,0,1,3.24,2.43q3.24,3.21,6.44,6.44c2.19,2.19,4.36,4.4,6.55,6.59,1.07,1.08,2.16,2.14,3.24,3.22,2,2,4,4,5.93,6s3.91,3.92,5.87,5.87a2.38,2.38,0,0,0,.54.31,2.56,2.56,0,0,0,.15-.59q0-15,0-30c0-.33,0-.62.47-.61,2.31,0,4.63,0,6.94,0A1.73,1.73,0,0,1,228.23,11.59Z"/><path class="cls-1" d="M326.87,56.68c-.29,0-.49,0-.7,0-3.2,0-6.41,0-9.61,0a2.1,2.1,0,0,1-1.69-.72c-2.78-2.83-5.6-5.64-8.39-8.46-1.43-1.45-2.87-2.88-4.26-4.36A4.87,4.87,0,0,1,300.8,40,2.84,2.84,0,0,1,303,36.8a21.23,21.23,0,0,1,3.66-.52c.71-.07,1.43,0,2.14,0a10,10,0,0,0,6.94-2.9,7.38,7.38,0,0,0,2.14-4.75,9.31,9.31,0,0,0-.77-4.8,7.12,7.12,0,0,0-3.72-3.47,17.27,17.27,0,0,0-6.85-1.14c-1.94,0-3.88,0-5.82,0-.54,0-.76.13-.76.74q0,18.11,0,36.2c0,.43-.1.6-.55.6-2.2,0-4.39,0-6.59,0-.45,0-.6-.13-.6-.61q0-21,0-41.91c0-.67.05-1.34,0-2s.14-.68.66-.68c4.23,0,8.47,0,12.7,0,1.75,0,3.51.22,5.25.39a19.71,19.71,0,0,1,7.37,2.34,13.56,13.56,0,0,1,6.65,7.42,17.22,17.22,0,0,1,.64,9.75,14.67,14.67,0,0,1-8.09,10.07,30.19,30.19,0,0,1-3.51,1.33c-.38.13-.5.32-.18.63.91.91,1.83,1.8,2.73,2.7l3.34,3.36c2.28,2.27,4.56,4.53,6.84,6.81A1.83,1.83,0,0,1,326.87,56.68Z"/><path class="cls-2" d="M139.16,67.11l-.41-.22-.2-.11-.4-.22c-.57-.31-1.13-.64-1.68-1l-.42-.26-.64-.39-.41-.26-.63-.42-.61-.41c-.29-.2-.57-.39-.85-.6l-.6-.44c-.2-.14-.39-.29-.58-.44a6.26,6.26,0,0,1-.57-.45l-.57-.45L130,61l-.76-.67-.62-.56c-.25-.23-.5-.46-.74-.7l-.29-.29-.28-.28-.18-.19-.38-.39c-.19-.2-.37-.39-.54-.59a.52.52,0,0,1-.1-.11l-.5-.57a.52.52,0,0,1-.1-.11c-.18-.2-.34-.4-.51-.61v0c-.19-.22-.37-.44-.55-.67l0,0-.25-.33-.24-.31c-.16-.22-.32-.43-.47-.65l-.46-.66-.25-.38-.27-.42q-.24-.36-.45-.72c-.06-.09-.11-.18-.16-.27l0-.07-.17-.3-.33-.59c0-.08-.09-.16-.13-.24l-.18-.33-.06-.11-.07-.13-.09-.18a36.45,36.45,0,0,1-2-4.48,48.24,48.24,0,0,1-1.44-4.81,23.93,23.93,0,0,1-.79-4.65,29.4,29.4,0,0,1-.07-5.55c.2-1.32.12-2.69.35-4,.28-1.65.74-3.27,1.16-4.89a34.08,34.08,0,0,1,3.57-8.35,48.25,48.25,0,0,1,2.87-4.27,35.62,35.62,0,0,1,5.71-6.06c1-.86,2.07-1.62,3.17-2.47h-.17a.05.05,0,0,0,0,0l-.47.22-.43.22L132,.58l-1.22.65-.1.05-.22.12-.05,0-.26.14-.05,0h0l-.19.11-.5.32c-1.85,1.22-3.68,2.5-5.43,3.87-.58.44-1.13.91-1.66,1.4l-.22.2h0l-.38.37-.39.38-.21.21,0,0-.17.17a1.29,1.29,0,0,0-.16.17,1.36,1.36,0,0,0-.12.12l-.1.1a33.18,33.18,0,0,0-2.34,2.81,5.08,5.08,0,0,1-.64.75h0l-.1.09-.08,0-.1,0h-.38a7.72,7.72,0,0,0-1.7-.23h-2.44l-.75,0h0a23.76,23.76,0,0,0-4,.19,30.09,30.09,0,0,0-5.5,1.27,19.47,19.47,0,0,0-6.7,4,22,22,0,0,0-3.68,4.36,21.2,21.2,0,0,0-2.39,5.24,21.44,21.44,0,0,0-.86,4.89,26.52,26.52,0,0,0,.83,9,20.65,20.65,0,0,0,2.58,5.77,21.88,21.88,0,0,0,9.24,8.38,22.36,22.36,0,0,0,8.11,2,29.87,29.87,0,0,0,11-1.08.71.71,0,0,1,.7.19c.92.75,1.71,1.63,2.64,2.37a47,47,0,0,0,5.65,4A46.57,46.57,0,0,0,139,67.28c.19.06.39.19.63,0ZM115,49.83c-.29,0-.59,0-.88,0h-1.27l-.29,0c-.4,0-.78,0-1.16,0h0a14.59,14.59,0,0,1-5-.67,14.09,14.09,0,0,1-9-8.46,14.45,14.45,0,0,1-1-7.21A14.64,14.64,0,0,1,101,24.19a13.68,13.68,0,0,1,5.47-3.27,11.06,11.06,0,0,1,3.92-.71c.79.06,1.6,0,2.4,0,.33,0,.54.15.39.53a29.78,29.78,0,0,0-1.81,6.89,31.36,31.36,0,0,0-.32,6.84,38.12,38.12,0,0,0,.65,4.91,30.44,30.44,0,0,0,2.74,7.73c.35.64.7,1.28,1,1.92S115.67,49.81,115,49.83Z"/><path class="cls-1" d="M179,56.22c0,.53-.28.51-.63.51-2.22,0-4.43,0-6.65,0-4.05,0-8.11,0-12.17,0-.47,0-.65-.1-.65-.62q0-11,0-22c0-7.28,0-14.56,0-21.85,0-.6.16-.76.77-.75q9.31,0,18.64,0c.54,0,.7.13.69.69,0,2.12,0,4.23,0,6.35,0,.47-.09.66-.62.66-3.64,0-7.28,0-10.92,0-.81,0-.83,0-.83.83,0,3.07,0,6.13,0,9.2,0,.59.2.74.76.73,3.05,0,6.09,0,9.14,0,.53,0,.51.32.51.67,0,1.91,0,3.84,0,5.75a3.62,3.62,0,0,0,0,.66c.11.56-.16.66-.65.64-.82,0-1.63,0-2.44,0-2.19,0-4.39,0-6.59,0-.53,0-.72.14-.71.71,0,3.32,0,6.64,0,10,0,.48.11.64.63.64,3.7,0,7.4,0,11.1,0,.5,0,.66.14.66.64C179,51.78,179,54,179,56.22Z"/><path class="cls-1" d="M287.62,56.2c0,.33-.06.53-.44.53l-19.41,0a.83.83,0,0,1-.21-.08V54.88q0-20.72,0-41.43c0-.46,0-.91,0-1.37s.11-.56.53-.55c.91,0,1.82,0,2.73,0h16.26l.5,0a4.43,4.43,0,0,1,0,.48c0,2.2,0,4.4,0,6.59,0,.45-.1.59-.6.58-3.7,0-7.4,0-11.1,0-.51,0-.68.18-.68.7q0,4.71,0,9.44c0,.5.17.62.66.61,3,0,6,0,9,0,.54,0,.71.17.7.72,0,2.14,0,4.28,0,6.41,0,.48-.13.61-.6.61-3.06,0-6.13,0-9.19,0-.47,0-.59.14-.59.57q0,5.1,0,10.21c0,.37.11.52.52.52,3.77,0,7.55,0,11.33,0,.46,0,.53.16.53.54Q287.61,52.85,287.62,56.2Z"/><path class="cls-1" d="M155.3,49.55q0,3.33,0,6.65c0,.4-.13.54-.51.53-2.45,0-4.91.09-7.36,0a24.52,24.52,0,0,1-6.79-1.25,21.21,21.21,0,0,1-10.5-8.11,22.65,22.65,0,0,1-3.46-7.81,26.62,26.62,0,0,1-.52-8.3,20.71,20.71,0,0,1,5.21-12.56,19.94,19.94,0,0,1,8.95-5.85,27.69,27.69,0,0,1,8-1.25c2.12,0,4.24,0,6.35,0,.48,0,.61.12.61.6,0,2.17,0,4.35,0,6.53,0,.41-.06.58-.55.57-1.32-.05-2.65,0-4,0a29.06,29.06,0,0,0-8,1.21h0a12.34,12.34,0,0,0-1.29.5l-.22.09-.2.1c-.3.15-.58.31-.86.48l-.29.19-.18.12-.11.09a14.78,14.78,0,0,0-2.35,2.2A13.66,13.66,0,0,0,134,31.26a19.69,19.69,0,0,0-.21,4.66,13.91,13.91,0,0,0,9.48,12.23,12.87,12.87,0,0,0,4.06.7c2.47,0,4.94,0,7.41.07C155.16,48.92,155.3,49.1,155.3,49.55Z"/><path class="cls-1" d="M262.72,19.21h-9.79c-.94,0-.94,0-1,1q0,18,0,36c0,.38-.09.53-.49.53-2.19,0-4.39,0-6.58,0-.49,0-.59-.16-.59-.62q0-18,0-35.91c0-1,0-1-1-1-3.35,0-6.69,0-10,0-.5,0-.59-.18-.59-.63,0-2.15,0-4.31,0-6.46,0-.48.13-.59.6-.59H263.5v2c0,1.62,0,3.25,0,4.87C263.51,19.21,263.53,19.21,262.72,19.21Z"/><path class="cls-2" d="M86.37,12.64v7.5H85.32l-9.91-.09c-.22,0-.43.06-.65.07-.41,0-.59.24-.59.65,0,3.14,0,6.29,0,9.43,0,.54.32.64.78.64,2.91,0,5.81,0,8.72,0,.58,0,.77.1.76.74,0,2,0,4,0,6.05v.69a4.62,4.62,0,0,1-.48.05H75.16c-.9,0-1,.07-1,1,0,2.84,0,5.69,0,8.53,0,3.09,0,6.17,0,9.26,0,.3,0,.5-.4.5h-7c-.05,0-.1,0-.16-.08V12.64Z"/><path class="cls-1" d="M327.87,71.88a7.89,7.89,0,0,1-3,2.15c-1.61.72-3.22,1.43-4.85,2.13L315.67,78c-.45.19-.92.36-1.35.59a1.07,1.07,0,0,0-.43.53q-1.74,4.75-3.44,9.51c-.5,1.39-1.06,2.76-1.45,4.18-.25.89-.88,1.06-1.57,1.26a5.35,5.35,0,0,1-.66.06c0-.23,0-.43,0-.64,0-3,0-6,.1-9a1.09,1.09,0,0,0-.6-1.09,20.72,20.72,0,0,1-2.55-1.82,1.77,1.77,0,0,0-1.66-.35c-1.67.34-3.33.77-5,1.14-1.23.28-2.47.5-3.7.76l-3.75.79c-.35.07-.4.27-.29.57.2.58.4,1.15.58,1.74.29.94.2,1.13-.76,1.74-.28-.44-.57-.88-.84-1.33-.62-1-1.23-2.07-1.87-3.09a2.12,2.12,0,0,0-.63-.6c-1.9-1.21-3.8-2.39-5.7-3.59a1.21,1.21,0,0,1,0-.19,3.22,3.22,0,0,1,1-.14c1.61.36,3.2.77,4.8,1.16l.12,0c1,.13,1.17-.06.9-1a6.52,6.52,0,0,1-.4-3l.1-.37c.4.42.75.77,1.08,1.14.79.9,1.59,1.81,2.37,2.73a.55.55,0,0,0,.77.17c1.87-.86,3.74-1.75,5.66-2.51a1.33,1.33,0,0,0,1-1.28,1,1,0,0,0-.75-1.11c-1.42-.62-2.8-1.35-4.19-2L282.3,68l-2-1c0-.06,0-.13,0-.19a4.75,4.75,0,0,0,.86-.25A4.94,4.94,0,0,1,285,66.5c1.86.55,3.77.94,5.65,1.43,1.09.27,2.15.6,3.23.88,1.83.46,3.67.88,5.49,1.34s3.38.89,5.07,1.34,3.38.89,5.07,1.31a1.79,1.79,0,0,0,1,0c2-.68,4-1.39,6.07-2.11a22.09,22.09,0,0,1,3.5-1.23,18.82,18.82,0,0,1,4.18-.09,14.54,14.54,0,0,1,3.07.55C328.41,70.23,328.61,71,327.87,71.88Z"/><path class="cls-2" d="M10.28,57.19c0,.37-.13.44-.45.44H3c-.36,0-.46-.12-.46-.49,0-6.31,0-12.62,0-18.93q0-12.64.06-25.28a2.39,2.39,0,0,1,0-.31h7.61c0,.33,0,.64,0,.94,0,6.71,0,13.42,0,20.12q0,10.62,0,21.25C10.24,55.69,10.24,56.44,10.28,57.19Z"/><path class="cls-1" d="M159.25,71.28q0,5.86,0,11.75c0,.27-.07.75-.2.78a3.44,3.44,0,0,1-1.28,0c-.09,0-.19-.36-.19-.56,0-1.31,0-2.61,0-3.92V72a5.13,5.13,0,0,0-.09-.67l-.23,0c-.15.33-.33.64-.46,1-1.22,3-2.42,5.91-3.63,8.87-.28.69-.58,1.38-.82,2.08s-.57.65-1.1.67a.88.88,0,0,1-1-.65c-.77-2-1.56-4-2.35-6.07-.67-1.72-1.33-3.45-2-5.18a6.66,6.66,0,0,0-.38-.69l-.18,0a4.72,4.72,0,0,0-.1.64c0,3.68,0,7.36,0,11,0,.84-.05.88-1,.85-.65,0-.75-.15-.74-.9q0-6.17,0-12.35c0-1,.25-1.25,1.26-1.25a6.94,6.94,0,0,1,1.29.08c.9.18,1,1,1.29,1.7,1.18,2.86,2.32,5.74,3.47,8.61.1.26.16.53.28.78s.21.22.31.33c.12-.12.28-.22.34-.36.46-1,.9-2.1,1.34-3.16l2.13-5.12c.3-.71.59-1.42.92-2.11a1.25,1.25,0,0,1,1.23-.75C159.57,69.32,159.25,69.57,159.25,71.28Z"/><path class="cls-1" d="M12.81,74.93a7.73,7.73,0,0,0-.92-3.1,5.12,5.12,0,0,0-3.8-2.52A7,7,0,0,0,2.27,70.6a6.42,6.42,0,0,0-2.1,4.18,11.36,11.36,0,0,0,.56,6.06,4.76,4.76,0,0,0,3.12,2.84,9.25,9.25,0,0,0,3.88.23,5.19,5.19,0,0,0,3.64-2.06,8.77,8.77,0,0,0,1.51-5.38C12.86,76,12.86,75.44,12.81,74.93ZM10.9,78.05a4.5,4.5,0,0,1-2.29,4c-1.78,1-4.89.73-5.94-1.51a12.4,12.4,0,0,1-.73-2.72,6.42,6.42,0,0,1,0-1.24,6.51,6.51,0,0,1,.93-4,4.16,4.16,0,0,1,4.21-1.86A4.2,4.2,0,0,1,10.89,75,28.58,28.58,0,0,1,10.9,78.05Z"/><path class="cls-1" d="M203.27,74.31A6,6,0,0,0,201,70.24a7.12,7.12,0,0,0-4.06-1.08,13.16,13.16,0,0,0-1.76.24A5.54,5.54,0,0,0,191.65,72a8.64,8.64,0,0,0-1,3.61,9.24,9.24,0,0,0,1.11,6,5.39,5.39,0,0,0,2,1.78,7.52,7.52,0,0,0,4.33.54,5.61,5.61,0,0,0,5-4.41A12,12,0,0,0,203.27,74.31Zm-2.67,6.36a3.78,3.78,0,0,1-3.07,1.83,5,5,0,0,1-2.78-.42,4.2,4.2,0,0,1-2.1-3.06,11.44,11.44,0,0,1,0-4.59,4.49,4.49,0,0,1,7.11-3,4.18,4.18,0,0,1,1.59,2.69c.17.81.2,1.64.28,2.32A8.4,8.4,0,0,1,200.6,80.67Z"/><path class="cls-1" d="M103,73.86a5.28,5.28,0,0,0-3-4.1,7.82,7.82,0,0,0-3.77-.55,5.84,5.84,0,0,0-5.46,4.61,12.69,12.69,0,0,0-.15,5.24c.42,2.5,1.88,4.71,5.13,4.88a16,16,0,0,0,2.3,0,5.25,5.25,0,0,0,4.09-2.58,10.59,10.59,0,0,0,1.23-5C103.27,75.69,103.21,74.76,103,73.86Zm-2.62,6.87a3.57,3.57,0,0,1-2.12,1.6c-1.77.41-3.51.39-4.77-1.17a4.92,4.92,0,0,1-1-2.1,10.3,10.3,0,0,1,.19-5.45,4.09,4.09,0,0,1,3.36-2.89,4.18,4.18,0,0,1,4.1,1.3,5.54,5.54,0,0,1,1.2,3.28c0,.41,0,.82.06,1.12A7.6,7.6,0,0,1,100.41,80.73Z"/><path class="cls-1" d="M86.08,75.84a6.81,6.81,0,0,0-1.44-4.23,6.48,6.48,0,0,0-4.86-2.2c-1.16-.07-2.33,0-3.5,0s-1.22.12-1.22,1.21c0,2,0,4,0,6h0v3.56c0,.87,0,1.74,0,2.61s.28,1.19,1.18,1.15c1.53-.07,3.07-.09,4.6-.28a5.47,5.47,0,0,0,4-2.4A8.67,8.67,0,0,0,86.08,75.84ZM83.6,79.91a3.89,3.89,0,0,1-3.19,2.33c-1,.12-2,.13-3,.2-.41,0-.54-.13-.54-.55,0-1.76,0-3.52,0-5.28h0c0-1.78,0-3.56,0-5.33,0-.16.2-.45.3-.45a11.12,11.12,0,0,1,4.1.38A4.33,4.33,0,0,1,84,74.35,8.2,8.2,0,0,1,83.6,79.91Z"/><path class="cls-1" d="M218,83c-.41-1-.76-2-1.19-3-.51-1.15-.9-2.39-2.28-3.11a7.82,7.82,0,0,1,.73-.46A3.61,3.61,0,0,0,217,71.59c-.74-1.69-2.27-2-3.84-2.21a32.53,32.53,0,0,0-3.56,0c-.79,0-1.08.29-1.08,1.06q0,6.3,0,12.58c0,.79.1.87,1,.87.76,0,.81-.05.82-.87,0-1.71,0-3.41,0-5.11,0-.35.06-.63.5-.64,1.94-.06,3,.4,3.78,2.25.47,1.13.91,2.27,1.36,3.4.38,1,.38,1,1.4,1C218.2,83.89,218.32,83.68,218,83Zm-5.91-7,0-.1H210.9c-.34,0-.5-.14-.5-.49,0-1.37,0-2.73,0-4.09,0-.17.2-.46.3-.47a7.25,7.25,0,0,1,3.55.39,2.22,2.22,0,0,1,1.17,2.38,2.12,2.12,0,0,1-1.4,1.94A15.83,15.83,0,0,1,212.11,76Z"/><path class="cls-1" d="M117.86,82.94c-.55-1.37-1.11-2.74-1.7-4.09a3.51,3.51,0,0,0-1.76-2l.72-.46a7.35,7.35,0,0,0,1-.7,3.8,3.8,0,0,0,1-3.53c-.79-2.26-2.3-2.61-4.14-2.82a29.33,29.33,0,0,0-3.38,0c-1,0-1.15.15-1.16,1.11q0,6.31,0,12.63c0,.75.06.75,1.1.77.64,0,.7-.32.69-.82,0-1.72,0-3.44,0-5.16,0-.21.22-.59.36-.6,1.48-.17,2.92.09,3.67,1.71.61,1.3,1.13,2.64,1.65,4,.34.87.31.88,1.28.88C118,83.9,118.17,83.71,117.86,82.94Zm-3.78-7.45a6.77,6.77,0,0,1-3.54.36c-.1,0-.27-.3-.28-.47,0-.67,0-1.34,0-2s0-1.34,0-2c0-.18.21-.49.34-.5a7.27,7.27,0,0,1,3.43.34,2.15,2.15,0,0,1,1.25,2.1A2.26,2.26,0,0,1,114.08,75.49Z"/><path class="cls-1" d="M54.68,83.25c-.28-.73-.52-1.49-.85-2.2-.66-1.48-1-3.15-2.66-4.2.33-.19.54-.32.75-.43a3.58,3.58,0,0,0,1.69-4.79c-.64-1.73-2.24-2.07-3.81-2.25a31.94,31.94,0,0,0-3.79,0,.69.69,0,0,0-.77.77c0,4.39,0,8.78,0,13.17,0,.17.12.48.21.5a3.19,3.19,0,0,0,1.27,0c.15,0,.22-.54.22-.83,0-1.7,0-3.4,0-5.1a.74.74,0,0,1,.36-.56,3.42,3.42,0,0,1,3.84,2c.49,1.2,1,2.4,1.45,3.62.42,1.06.46,1.08,1.61,1C54.67,83.87,54.85,83.7,54.68,83.25Zm-4.91-7.42c-.77.07-1.54,0-2.31.08-.38,0-.53-.15-.51-.54,0-.67,0-1.34,0-2s0-1.26,0-1.9c0-.44.15-.68.62-.64,1,.08,2,.12,2.94.26A2.28,2.28,0,0,1,52,73.58,2.4,2.4,0,0,1,49.77,75.83Z"/><path class="cls-1" d="M70.44,83.12c-.67-1.93-1.35-3.87-2-5.79-.84-2.33-1.75-4.64-2.55-7-.39-1.13-.59-1-1.39-1-.18,0-.36,0-.54,0a.79.79,0,0,0-.85.64c-.88,2.47-1.78,4.94-2.68,7.4-.65,1.8-1.31,3.59-2,5.39-.38,1-.28,1.15.83,1.11.39,0,.69-.07.82-.51.31-1,.62-2,1-2.91a.9.9,0,0,1,.63-.48c1.76,0,3.52,0,5.28,0a.72.72,0,0,1,.54.33c.36.9.68,1.81,1,2.73s.31.87,1.16.85h.24C70.64,83.88,70.69,83.83,70.44,83.12ZM66.3,78.6c-.69,0-1.38,0-2.07,0h0c-.66,0-1.31,0-2,0s-.56-.29-.43-.66c.33-1,.68-2,1-3s.74-2.07,1.12-3.1a1.45,1.45,0,0,1,.26-.35c.11.11.27.21.31.35.6,1.69,1.17,3.38,1.76,5.08.13.35.3.68.43,1S66.82,78.62,66.3,78.6Z"/><path class="cls-1" d="M265.35,82.83a.14.14,0,0,1,0-.06Q264,79,262.61,75.27c-.51-1.43-1-2.87-1.51-4.3-.6-1.65-.78-1.78-2.36-1.59a.88.88,0,0,0-.6.44c-.48,1.19-.91,2.4-1.34,3.6-.87,2.43-1.73,4.86-2.6,7.28-.27.75-.59,1.47-.83,2.22a1.08,1.08,0,0,0,0,.87c.34.39,1.47,0,1.65-.47.31-.9.61-1.8.93-2.69.12-.32.2-.68.69-.67,1.76,0,3.52,0,5.28,0a.63.63,0,0,1,.51.27c.35.88.69,1.76,1,2.67s.35,1,1.19,1C265.7,83.91,265.74,83.85,265.35,82.83ZM261,78.61c-1.25,0-2.49,0-3.73,0-.56,0-.62-.1-.43-.64.71-2,1.42-4.09,2.14-6.13,0-.13.18-.23.27-.35.12.11.29.2.34.34.37,1,.72,1.92,1.06,2.88L262,78.55C261.56,78.58,261.27,78.61,261,78.61Z"/><path class="cls-1" d="M133.71,83.14c-.83-2.36-1.68-4.71-2.53-7.07-.69-1.9-1.41-3.8-2.08-5.71-.34-1-.34-1-1.37-1s-1.23.06-1.54.9l-.48,1.33-2.45,6.9c-.57,1.58-1.14,3.16-1.69,4.74-.06.18-.08.48,0,.59.36.39,1.59,0,1.76-.48.32-.95.66-1.9,1-2.86A.59.59,0,0,1,125,80c1.72,0,3.45,0,5.17,0a.64.64,0,0,1,.7.5c.32,1,.65,2,1,3,.08.2.4.36.64.45a1.52,1.52,0,0,0,.64,0C133.8,83.88,133.92,83.74,133.71,83.14Zm-4.33-4.54h-3.86c-.41,0-.6-.12-.44-.57.73-2.07,1.44-4.14,2.17-6.2,0-.14.22-.24.33-.36a1.31,1.31,0,0,1,.29.34L130,77.73C130.25,78.58,130.24,78.61,129.38,78.6Z"/><path class="cls-1" d="M175.87,82.81c-.1-.22-.17-.44-.25-.67-.62-1.74-1.22-3.49-1.85-5.23-.72-2-1.48-4-2.18-6.06-.5-1.44-.68-1.59-2.11-1.51a.89.89,0,0,0-.9.68c-.35,1-.74,2.07-1.11,3.11-.75,2.05-1.48,4.11-2.23,6.16-.47,1.28-1,2.55-1.41,3.83-.07.22,0,.64.1.73a1.32,1.32,0,0,0,1.72-.66c.33-.92.63-1.87,1-2.78a.83.83,0,0,1,.59-.42c1.74,0,3.48,0,5.22,0a.86.86,0,0,1,.64.45,23.24,23.24,0,0,1,.81,2.35c.31,1,.43,1.11,1.29,1.11C176.2,83.9,176.3,83.74,175.87,82.81Zm-4.25-4.22h-3.79c-.62,0-.65-.09-.45-.65.69-2,1.38-4,2.06-6,.07-.2.15-.39.22-.59l.19,0a3.33,3.33,0,0,1,.28.48c.69,2,1.39,4,2.07,6C172.45,78.58,172.43,78.59,171.62,78.59Z"/><path class="cls-1" d="M40,83.13a.76.76,0,0,1-.85.77h-6c-1,0-1.21-.23-1.21-1.24,0-1.41,0-2.82,0-4.23V73.51c0-1,0-2,0-3s.26-1.12,1.06-1.12c2,0,4,0,5.94,0,.52,0,.89,0,.85.7s0,.73-.87.73c-1.5,0-3,0-4.51,0-.5,0-.64.14-.63.65,0,1.22,0,2.45,0,3.67,0,.37.11.43.44.42,1.34,0,2.69,0,4,0,.54,0,.78.21.78.78s-.18.69-.7.68c-1.32,0-2.65,0-4,0-.4,0-.56.1-.55.54,0,1.44,0,2.89,0,4.33,0,.45.14.59.57.58,1.6,0,3.21,0,4.81,0C39.72,82.41,40,82.61,40,83.13Z"/><path class="cls-1" d="M236.28,83.48a6.91,6.91,0,0,1-5.68-.11c-.84-.34-1-1.09-.65-2.05a17.69,17.69,0,0,0,2.4,1,3.78,3.78,0,0,0,3.5-.46,2.18,2.18,0,0,0,.05-3.49,18,18,0,0,0-2.82-1.58c-2.09-1.06-3.39-2.31-2.78-5a3.28,3.28,0,0,1,2.59-2.41,6.32,6.32,0,0,1,4.11.33,1.26,1.26,0,0,1,.66,1.67c-.06.1-.41.12-.59.06-.64-.23-1.25-.55-1.9-.75a2.82,2.82,0,0,0-2.38.37,2.07,2.07,0,0,0,.13,3.47,34.22,34.22,0,0,0,3.28,1.75A4,4,0,0,1,238.5,79,3.83,3.83,0,0,1,236.28,83.48Z"/><path class="cls-1" d="M187.78,69.37c-.26.58-.44,1-.66,1.45-1.14,2.27-2.3,4.54-3.42,6.82a3.09,3.09,0,0,0-.29,1.24c0,1.44,0,2.88,0,4.33,0,.54-.22.7-.71.68-.17,0-.35,0-.53,0-.4,0-.6-.15-.59-.61,0-1.56.07-3.13,0-4.68a5.24,5.24,0,0,0-.66-1.8c-1.1-2.23-2.22-4.44-3.33-6.67a5.52,5.52,0,0,1-.25-.73c.62,0,1.15,0,1.66,0,.16,0,.33.27.42.45,1,2,1.91,4.06,2.86,6.09a1.3,1.3,0,0,0,.3.32,1.66,1.66,0,0,0,.25-.34c1-2.06,2-4.13,2.95-6.18a.79.79,0,0,1,.52-.37A12.17,12.17,0,0,1,187.78,69.37Z"/><path class="cls-1" d="M251.71,70.86c-1.09,0-2.18,0-3.26,0-.5,0-.66.17-.66.66,0,1.95,0,3.91,0,5.87v5.76c0,.74,0,.73-1,.77-.58,0-.7-.23-.69-.74,0-3.82,0-7.64,0-11.46,0-.79,0-.85-.82-.86-1,0-2,0-3,0-.57,0-.69-.3-.67-.73s0-.77.69-.76c3.14,0,6.29,0,9.43,0,.52,0,.6.27.6.66S252.39,70.87,251.71,70.86Z"/><path class="cls-1" d="M224.87,70.07q0,6.53,0,13.05c0,.78,0,.78-.93.78-.74,0-.8-.07-.8-.82q0-3.22,0-6.47t0-6.52c0-.7.05-.75.86-.74S224.87,69.38,224.87,70.07Z"/><path class="cls-2" d="M60.46,34.25q0-10.65,0-21.31a1.17,1.17,0,0,0,0-.27H53.12l0,0c-.11.08-.15.23-.14.48,0,2,0,4,0,6.05,0,7.87,0,15.75,0,23.62,0,.25.08.56-.19.7s-.4-.19-.62-.26a.69.69,0,0,1-.23-.19l-3.57-3.59c-2.23-2.26-4.46-4.53-6.7-6.78-1.75-1.76-3.52-3.49-5.27-5.25-1.16-1.16-2.28-2.36-3.45-3.5s-2.41-2.33-3.59-3.52c-1.71-1.72-3.44-3.41-5.12-5.15a9.54,9.54,0,0,0-3.79-2.6,3.77,3.77,0,0,0-.58-.14l-.15,0a2.43,2.43,0,0,0-.66,0h0a1.6,1.6,0,0,0-.43.11l-.36.15a5.64,5.64,0,0,0-.55.29h0a3.13,3.13,0,0,0-1.48,3c0,8.13,0,16.25,0,24.37V56.87c0,.19,0,.34,0,.46s.19.31.53.31c1.92,0,3.83,0,5.76,0,1.24,0,1.22,0,1.22-1.27q0-14.76,0-29.54a1.67,1.67,0,0,1,.17-.52,2.52,2.52,0,0,1,.48.28c1.82,1.82,3.62,3.65,5.44,5.47q5.58,5.6,11.16,11.21c1.77,1.78,3.51,3.59,5.28,5.37,2,2.06,4.11,4.1,6.17,6.15a9.9,9.9,0,0,0,4.62,3c1.07.25,2.55-.17,2.9-1.06a7,7,0,0,0,.57-2.39C60.5,47.67,60.46,41,60.46,34.25ZM17.3,13.48a0,0,0,0,0,0,0h0v0Zm7.83,3.11a0,0,0,0,0,0,0v0Z"/><path class="cls-1" d="M26.75,72.49A3.66,3.66,0,0,0,24,69.65a19.49,19.49,0,0,0-5-.26c-.71,0-.94.29-.94,1V82.84c0,1,0,1,1.06,1.08.55,0,.75-.17.74-.71,0-1.15,0-2.29,0-3.44,0-1.77-.2-1.51,1.49-1.53a14.64,14.64,0,0,0,1.48,0,4.8,4.8,0,0,0,1.26-.27A4.49,4.49,0,0,0,26.75,72.49Zm-4.86,4.3a13.17,13.17,0,0,0-1.54,0c-.41,0-.56-.13-.55-.55,0-.57,0-1.15,0-1.72V73.16c0-.56,0-1.12,0-1.67s.18-.72.69-.69c.67,0,1.34,0,2,.07a2.45,2.45,0,0,1,2.35,1.77C25.57,74.9,24.13,77,21.89,76.79Z"/></svg>