<svg xmlns="http://www.w3.org/2000/svg" viewBox="0 0 93.75 93.75"><defs><style>.cls-1{fill:#184c86;}.cls-2{fill:#fff;}</style></defs><title>SH</title><g id="Layer_1" data-name="Layer 1"><rect class="cls-1" x="22.65" y="22.65" width="48.45" height="48.45" rx="9.55"/><path class="cls-2" d="M30.49,63.43l-.13,0a1.37,1.37,0,0,1-.52-.16,1.24,1.24,0,0,1-.23-.17.36.36,0,0,1-.1-.38c.1-.34.18-.67.3-1q.72-2,1.47-4c.64-1.76,1.28-3.52,1.94-5.28.44-1.19.9-2.37,1.34-3.57.3-.81.58-1.63.81-2.47.06-.23.1-.47.15-.7a1,1,0,0,0,0-.3c0-.16-.08-.2-.23-.14a1.4,1.4,0,0,0-.26.16c-.29.25-.57.49-.84.75-.55.54-1.09,1.09-1.64,1.64a18.92,18.92,0,0,1-1.67,1.56,6.25,6.25,0,0,1-2.14,1.11,3,3,0,0,1-1,.12,1.36,1.36,0,0,1-.52-.12c-.2-.1-.24-.2-.15-.4a1.86,1.86,0,0,1,.22-.35c.27-.31.54-.61.82-.91.68-.72,1.37-1.43,2.05-2.16a20.33,20.33,0,0,0,1.51-1.85c.23-.31.47-.59.68-.9a11.16,11.16,0,0,0,1.31-2.27A3.76,3.76,0,0,0,34,40.7a2.09,2.09,0,0,0,0-.25.21.21,0,0,0-.22-.23,2.19,2.19,0,0,0-.36,0,8.48,8.48,0,0,0-1.32.43c-.7.29-1.39.6-2.1.87a17.06,17.06,0,0,1-2.88.87,7.89,7.89,0,0,1-.85.09,1.07,1.07,0,0,1-.75-.2,1.09,1.09,0,0,1-.46-.65.6.6,0,0,0-.06-.11v-.22a.93.93,0,0,0,.05-.1,2.83,2.83,0,0,1,.14-.35,6.9,6.9,0,0,1,.42-.63,8.61,8.61,0,0,1,1.32-1.31,22.28,22.28,0,0,1,2.9-2,27.7,27.7,0,0,1,4.17-2,9.31,9.31,0,0,1,2.82-.57l.12,0h0l.1,0,.28,0a.29.29,0,0,1,.26.14.5.5,0,0,1,.06.41.69.69,0,0,1-.23.3c-.15.09-.3.19-.45.27a10.69,10.69,0,0,1-1.23.46c-.7.23-1.4.46-2.09.72a12.35,12.35,0,0,0-2.78,1.53,13.16,13.16,0,0,0-2,1.67c-.13.14-.25.28-.37.43a1,1,0,0,0-.12.19c-.06.12,0,.17.11.16l.21,0,.71-.28,2.36-1a14.46,14.46,0,0,1,2.2-.71,7,7,0,0,1,1.12-.15,2.69,2.69,0,0,1,.8.08,1.49,1.49,0,0,1,1.16,1.21A1.92,1.92,0,0,1,37,40.87a3.76,3.76,0,0,1-.59,1,11,11,0,0,1-1,1.06L35,43.3s-.09.1,0,.16.11.06.17,0l.6-.1A5.72,5.72,0,0,1,37,43.3a3.7,3.7,0,0,1,.57.07,1.21,1.21,0,0,1,1,1.07,2.28,2.28,0,0,1-.07.9,23.93,23.93,0,0,1-.86,2.85c-.49,1.39-1,2.78-1.48,4.18-.3.86-.6,1.72-.88,2.59s-.63,1.71-.94,2.56l-1.11,3A13.07,13.07,0,0,1,32.5,62a3.69,3.69,0,0,1-.54.81,2.49,2.49,0,0,1-.38.34.92.92,0,0,1-.53.19c-.16,0-.31.06-.46.09Z"/><path class="cls-2" d="M47.79,40.81l.1-.13c.54-.78,1.08-1.56,1.61-2.35a.22.22,0,0,1,.21-.1h.75c0,.1,0,4.37,0,4.56-.23,0-.46,0-.71,0V40c0-.31,0-.62,0-.93h0l-.08.1L48,41.48a.23.23,0,0,1-.23.11.36.36,0,0,1-.31-.19l-1.6-2.22a.76.76,0,0,0-.08-.11h0s0,.1,0,.14V42.8h-.66V38.24h.74a.21.21,0,0,1,.21.11l1.63,2.34Z"/><path class="cls-2" d="M50.11,49a3.93,3.93,0,0,1-1.75-.37,2,2,0,0,1-1-1.14,2.32,2.32,0,0,1-.11-1,2.24,2.24,0,0,1,.13-.57,1.89,1.89,0,0,1,1.11-1.15,3.41,3.41,0,0,1,1-.24,4.23,4.23,0,0,1,1.23,0,2.77,2.77,0,0,1,1,.32,1.89,1.89,0,0,1,.94,1.42,2.24,2.24,0,0,1-.08,1.12,2.21,2.21,0,0,1-.82,1.06A2.79,2.79,0,0,1,50.11,49ZM52,46.61v-.19A1.52,1.52,0,0,0,50.89,45a2.09,2.09,0,0,0-.66-.13,2.94,2.94,0,0,0-1.25.16,1.49,1.49,0,0,0-.95,1,1.9,1.9,0,0,0-.08.71,1.52,1.52,0,0,0,.7,1.27,2.32,2.32,0,0,0,2.15.23A1.72,1.72,0,0,0,52,46.61Z"/><path class="cls-2" d="M59.89,40.85V42.8c-.25,0-.48,0-.71,0,0-.1,0-4.43,0-4.56h1.6a3.22,3.22,0,0,1,1.14.23,1.35,1.35,0,0,1,.51.34.85.85,0,0,1,.26.62,1.51,1.51,0,0,1,0,.3,1,1,0,0,1-.53.7,2.11,2.11,0,0,1-.66.2l-.08,0,0,0a2,2,0,0,1,.78.6c.43.47.82,1,1.2,1.47l0,.07h-.73a.19.19,0,0,1-.17-.09c-.24-.33-.48-.65-.73-1a4,4,0,0,0-.61-.63,1.66,1.66,0,0,0-.21-.16.7.7,0,0,0-.4-.12Zm0-.5H61a1.14,1.14,0,0,0,.57-.16.74.74,0,0,0,0-1.26,1.24,1.24,0,0,0-.6-.18H59.86A14,14,0,0,0,59.87,40.35Z"/><path class="cls-2" d="M52.16,42.8a.51.51,0,0,0,.05-.12q1.08-2.16,2.14-4.32a.25.25,0,0,0,0-.07.1.1,0,0,1,.09-.06h.71l2.18,4.56h-.66c-.08,0-.1-.05-.13-.1l-.45-1a.17.17,0,0,0-.21-.14h-2.3a.18.18,0,0,0-.2.12c-.14.33-.29.64-.43,1a.17.17,0,0,1-.18.12ZM53.76,41c.26,0,1.87,0,2,0s-.9-2-1-2Z"/><path class="cls-2" d="M40.41,44.51h.7v1.81H44V44.53a3.35,3.35,0,0,1,.72,0c0,.1,0,4.2,0,4.32H44V46.88c-.11,0-2.76,0-2.9,0v1.94a2,2,0,0,1-.66,0C40.39,48.74,40.38,44.67,40.41,44.51Z"/><path class="cls-2" d="M39.49,42.54V42l.12,0a7.38,7.38,0,0,0,1.21.3,2.32,2.32,0,0,0,.91,0,1,1,0,0,0,.24-.09.66.66,0,0,0,.34-.61.36.36,0,0,0-.15-.29,1.19,1.19,0,0,0-.33-.22l-.71-.31-.88-.37a1.93,1.93,0,0,1-.36-.22A.85.85,0,0,1,39.59,39a1.09,1.09,0,0,1,.39-.46,1.92,1.92,0,0,1,.81-.29,5,5,0,0,1,1.5,0l.43.06.11,0,0,.62-.4-.1a5.5,5.5,0,0,0-1.21-.16,1.4,1.4,0,0,0-.57.1.54.54,0,0,0-.35.41.44.44,0,0,0,.14.46,1.9,1.9,0,0,0,.33.22l.63.28.89.4a1.8,1.8,0,0,1,.5.37,1,1,0,0,1-.26,1.61,2.38,2.38,0,0,1-.78.21,6.51,6.51,0,0,1-1.76-.14Z"/><path class="cls-2" d="M61,44.89v1.52h2.11v.42H61c0,.54,0,1.06,0,1.59a2.54,2.54,0,0,0,.39,0h2v.45h-3c0-.09,0-4.29,0-4.44s2.89,0,3,0v.44H61Z"/><path class="cls-2" d="M68.31,38.24v.51H66.66a1.21,1.21,0,0,0,0,.18c0,1.23,0,2.46,0,3.69v.18c-.23,0-.45,0-.68,0v-4h-1.7v-.5h4Z"/><path class="cls-2" d="M56.43,48.89h-.68v-4H54.08v-.49c.11,0,3.85,0,4,0v.49H56.43Z"/><path class="cls-2" d="M68.77,48.36s0,.07,0,.09v.43c-.1,0-2.75,0-2.93,0,0-.09,0-4.24,0-4.39h.66s0,.1,0,.15v3.71h2.26Z"/></g></svg>