<svg xmlns="http://www.w3.org/2000/svg" viewBox="0 0 47.7 47.73"><defs><style>.cls-1{fill:#fff;}.cls-2{fill:none;stroke:#fff;stroke-miterlimit:10;stroke-width:2px;}</style></defs><g id="Layer_1" data-name="Layer 1"><path class="cls-1" d="M21.51,39.35a.7.7,0,0,0-.14,0,1.36,1.36,0,0,1-.55-.17,1.08,1.08,0,0,1-.24-.18.39.39,0,0,1-.11-.41c.1-.35.19-.71.32-1.06.51-1.44,1-2.87,1.56-4.3q1-2.82,2.06-5.62c.47-1.27,1-2.53,1.43-3.8.32-.87.62-1.74.86-2.63a6.69,6.69,0,0,0,.16-.75,1.67,1.67,0,0,0,0-.32c0-.16-.09-.22-.24-.15a1.41,1.41,0,0,0-.29.18c-.3.25-.61.51-.89.79-.59.57-1.16,1.16-1.74,1.74a20,20,0,0,1-1.78,1.67,6.61,6.61,0,0,1-2.28,1.18,3.4,3.4,0,0,1-1.05.13,1.4,1.4,0,0,1-.56-.14c-.21-.1-.25-.2-.15-.41a1.33,1.33,0,0,1,.23-.38c.28-.33.57-.65.87-1,.72-.77,1.46-1.52,2.18-2.3a21.61,21.61,0,0,0,1.61-2l.73-.95a13.2,13.2,0,0,0,1.39-2.42,3.78,3.78,0,0,0,.29-.92,1.14,1.14,0,0,0,0-.26q0-.24-.24-.24a1.58,1.58,0,0,0-.38,0,7.41,7.41,0,0,0-1.4.46c-.75.3-1.49.63-2.24.92A16.57,16.57,0,0,1,17.9,17a9,9,0,0,1-.91.11,1.22,1.22,0,0,1-.8-.22,1.14,1.14,0,0,1-.49-.69.39.39,0,0,0-.06-.11v-.25l0-.1a2,2,0,0,1,.15-.37,6,6,0,0,1,.45-.67,9.75,9.75,0,0,1,1.4-1.4,24.84,24.84,0,0,1,3.08-2.13A30.34,30.34,0,0,1,25.21,9a10,10,0,0,1,3-.6l.13,0h0l.11,0,.3,0a.31.31,0,0,1,.28.15.49.49,0,0,1,.06.44.63.63,0,0,1-.25.31,3.82,3.82,0,0,1-.48.29,12,12,0,0,1-1.3.49c-.74.25-1.49.49-2.23.76a13.2,13.2,0,0,0-3,1.64,14.8,14.8,0,0,0-2.1,1.77c-.14.15-.27.31-.39.46a.74.74,0,0,0-.13.21c-.06.12,0,.18.11.16l.23,0c.25-.1.5-.19.75-.3.84-.35,1.67-.72,2.52-1.06A14.82,14.82,0,0,1,25.23,13a6.83,6.83,0,0,1,1.19-.17,3,3,0,0,1,.85.08,1.59,1.59,0,0,1,1.23,1.3,2,2,0,0,1-.12,1.18,4.21,4.21,0,0,1-.62,1,14,14,0,0,1-1.05,1.13c-.13.13-.26.27-.38.41s-.1.11-.06.18a.17.17,0,0,0,.18.05l.64-.11a6.39,6.39,0,0,1,1.31-.12A3.09,3.09,0,0,1,29,18a1.27,1.27,0,0,1,1,1.14,2.34,2.34,0,0,1-.07,1,27.19,27.19,0,0,1-.91,3l-1.57,4.44c-.33.92-.64,1.84-.94,2.76s-.67,1.82-1,2.73-.78,2.12-1.18,3.19a12.29,12.29,0,0,1-.7,1.57,3.9,3.9,0,0,1-.57.86,2.79,2.79,0,0,1-.4.37,1.09,1.09,0,0,1-.58.2l-.48.09Z"/><rect class="cls-2" x="1.78" y="1.8" width="44.13" height="44.13" rx="6.88"/></g></svg>