<svg id="Layer_1" data-name="Layer 1" xmlns="http://www.w3.org/2000/svg" viewBox="0 0 60 60"><defs><style>.cls-1{fill:#fff;}</style></defs><title>whatsapp</title><path class="cls-1" d="M29.34,7.91h2c.2,0,.4.08.6.1a20.76,20.76,0,0,1,7.8,2.06A21.54,21.54,0,1,1,20.4,48.56a1.13,1.13,0,0,0-1-.09l-8.89,2.86-2.45.76c.05-.22.07-.35.11-.47q1.76-5.23,3.53-10.47a1.14,1.14,0,0,0-.08-1C8,33.49,7.75,26.7,11.07,19.93A20.84,20.84,0,0,1,26.34,8.32C27.33,8.12,28.34,8,29.34,7.91ZM13.6,46.6l.55-.14c2-.62,3.94-1.24,5.9-1.88a1,1,0,0,1,.87.12,17.56,17.56,0,0,0,14.5,2,18,18,0,1,0-19.9-7.14,1,1,0,0,1,.13,1c-.32.82-.58,1.67-.86,2.51C14.4,44.19,14,45.34,13.6,46.6Z"/><path class="cls-1" d="M23.78,19c1-.23,1.5.4,1.81,1.36.42,1.27,1,2.51,1.38,3.79a1.39,1.39,0,0,1-.09,1.08,11.74,11.74,0,0,1-1.38,1.71.91.91,0,0,0-.19,1.18,15,15,0,0,0,7.37,6.8.83.83,0,0,0,1.08-.23c.56-.64,1.15-1.25,1.67-1.92a.93.93,0,0,1,1.29-.36l4.44,2.34c.46.24.42.65.38,1.06-.21,2.31-1.39,3.53-4,4.26-1.81.5-3.4-.26-5-.84-4.77-1.68-8.09-5-10.73-9.21a12.23,12.23,0,0,1-2-4.56,6.17,6.17,0,0,1,2.15-6.05A2.17,2.17,0,0,1,23.78,19Z"/></svg>